<svg x="0" y="0" width="48" height="48" version="1.1" xmlns="http://www.w3.org/2000/svg" xmlns:xlink="http://www.w3.org/1999/xlink"><defs><linearGradient x1="15.38276" y1="11.68966" x2="33.6779" y2="37.371" gradientUnits="userSpaceOnUse" id="color-1"><stop offset="0.8" stop-color="#000000" stop-opacity="0.2"></stop><stop offset="1" stop-color="#000000" stop-opacity="0"></stop></linearGradient><filter id="dropshadow"><feColorMatrix type="matrix" values="0 0 0 0 .05  0 0 0 0 .15  0 0 0 0 .1  0 0 0 .8 0"></feColorMatrix> <feOffset dx="0" dy="1"></feOffset> <feGaussianBlur stdDeviation="1"></feGaussianBlur> <feComposite in="SourceGraphic"></feComposite></filter></defs><g fill="none" stroke="none" stroke-width="none" stroke-linecap="butt" stroke-linejoin="miter" stroke-miterlimit="none" stroke-dasharray="" stroke-dashoffset="0" font-family="none" font-weight="none" font-size="none" text-anchor="start" mix-blend-mode="normal"><g fill="#000000" stroke="none" stroke-width="1" stroke-miterlimit="4" font-family="&quot;Open Sans&quot;, sans-serif" font-weight="400" font-size="14"></g><path d="M3,24c0,-11.59798 9.40202,-21 21,-21c11.59798,0 21,9.40202 21,21c0,11.59798 -9.40202,21 -21,21c-11.59798,0 -21,-9.40202 -21,-21z" fill="#431da1" stroke-width="1" stroke-miterlimit="10" font-family="sans-serif" font-weight="normal" font-size="12" filter="url(#dropshadow)"></path><path d="M27.52273,27.07758c0,0 2.63244,0 2.63244,0c0.68015,0 1.29566,0.27544 1.74114,0.72092l1.06066,1.06066c-0.00139,-0.00139 -0.00279,-0.00279 -0.00419,-0.00418l0.00419,0.00419c0.44548,0.44548 0.72092,1.06099 0.72092,1.74114l0,6.77068l0.00001,0.00001l-2.46207,0l-1.06066,-1.06066l0,-5.09451l-5.09451,0c-0.68014,0 -1.29566,-0.27544 -1.74114,-0.72092l-1.06066,-1.06066c0.00139,0.00139 0.00279,0.00279 0.00419,0.00418l-0.00419,-0.00419c-0.44548,-0.44548 -0.72092,-1.06099 -0.72092,-1.74113l-0.00001,-0.00001l0,-7.27541c0,-1.28643 0.94174,-2.43745 2.22202,-2.56055c0.5355,-0.0554 1.04022,0.06771 1.46493,0.31391l0.00001,0.00001c0,0 0.0123,0 0.0123,0c0.00616,0.00616 0.01231,0.01231 0.02462,0.01847c0.2488,0.12717 0.48271,0.2891 0.68388,0.49027c0,0 0.00409,0.00409 0.00409,0.00409c-0.00136,-0.00137 -0.00272,-0.00273 -0.00409,-0.0041l1.06066,1.06066c0.02278,0.02279 0.04514,0.04606 0.06705,0.06986l1.2498,1.38009c1.17872,0.96511 2.74466,1.59874 4.29404,1.57856l0,0.9758c-1.41098,-0.24068 -2.75801,-0.97098 -3.728,-1.94097l-1.06066,-1.06066c-0.07623,-0.07623 -0.15014,-0.15393 -0.22156,-0.23301l-0.00009,-0.00009l-0.97673,-1.07855c-0.09897,-0.06693 -0.20201,-0.12725 -0.30773,-0.18129c-0.01231,-0.00616 -0.01847,-0.01231 -0.02462,-0.01847l-0.01231,0l-0.00002,-0.00002c-0.42471,-0.2462 -0.92942,-0.3693 -1.46491,-0.3139c-1.28028,0.1231 -2.22202,1.27412 -2.22202,2.56055l0,7.2754l0.00001,0.00001c0,0.40677 0.09852,0.79042 0.27301,1.12841c0.33798,0.17448 0.72163,0.273 1.12839,0.273l6.15517,0l1.06066,1.06066l0,5.09451l1.4014,0l0,-6.77069c0,-0.40677 -0.09852,-0.79042 -0.27301,-1.12841c-0.33798,-0.17449 -0.72163,-0.273 -1.12839,-0.273l-3.6931,0l0,0.00001l-1.06066,-1.06066l0,-4.24707l1.06066,1.06066z M27.57,31.3862l1.06066,1.06066c-0.57243,2.80676 -3.05296,4.92414 -6.03207,4.92414c0,0 -0.00001,-0.00001 -0.00001,-0.00001c-1.69883,0 -3.23761,-0.68938 -4.35169,-1.80346l-0.00663,-0.00663c0.0022,0.00221 0.00441,0.00442 0.00661,0.00662l-1.06066,-1.06066c-1.11408,-1.11408 -1.80346,-2.65287 -1.80346,-4.3517c0,-2.97911 2.11738,-5.45964 4.92414,-6.03207l1.06066,1.06066l0,2.5544c-1.43415,0.50472 -2.46207,1.87117 -2.46207,3.47767c0,0.74782 0.22308,1.44423 0.60622,2.02622c0.58198,0.38314 1.27839,0.60622 2.02622,0.60622c1.6065,0 2.97295,-1.02792 3.47767,-2.46207z M19.98803,33.82639l-1.06066,-1.06066c-0.66861,-0.66861 -1.08254,-1.59188 -1.08254,-2.61056c0,-1.6065 1.02791,-2.97295 2.46207,-3.47767l0,-1.17519c-2.26277,0.90994 -3.86348,3.12327 -3.86348,5.71352c0,1.42871 0.48758,2.74424 1.30532,3.78914c1.04491,0.81776 2.36045,1.30536 3.78919,1.30536l0.00001,0.00001c2.59024,0 4.80358,-1.60071 5.71351,-3.86348l-1.17519,0c-0.50472,1.43416 -1.87117,2.46207 -3.47767,2.46207c-1.01868,0 -1.94195,-0.41393 -2.61056,-1.08254z M23.31971,16.95334l-1.06066,-1.06066c-0.44555,-0.44555 -0.72112,-1.06107 -0.72112,-1.74095c0,-1.35977 1.10231,-2.46207 2.46207,-2.46207c0.67989,0 1.2954,0.27557 1.74095,0.72112l1.06066,1.06066c0.44555,0.44555 0.72112,1.06106 0.72112,1.74095c0,1.35976 -1.1023,2.46207 -2.46207,2.46207c-0.67988,0 -1.2954,-0.27558 -1.74095,-0.72112z M33.6779,23.82962l0,2.46207c-2.16047,-0.00616 -4.56714,-1.08947 -6.15517,-2.40052l-1.06066,-1.06066c1.58803,1.31106 3.99471,2.39436 6.15517,2.40052c0,0 0,-1.48627 0,-1.48627c0.3512,0.05991 0.70636,0.08948 1.06066,0.08486z M26.18892,13.02347c-0.338,-0.17457 -0.72162,-0.27315 -1.12826,-0.27315c-1.35977,0 -2.46207,1.10231 -2.46207,2.46207c0,0.40665 0.09858,0.79026 0.27315,1.12826c0.338,0.17457 0.72161,0.27315 1.12826,0.27315c1.35976,0 2.46207,-1.1023 2.46207,-2.46207c0,-0.40664 -0.09858,-0.79026 -0.27315,-1.12826z" fill="url(#color-1)" stroke-width="1" stroke-miterlimit="10" font-family="sans-serif" font-weight="normal" font-size="12"></path><path d="M26.46207,22.83052l0,4.24707l3.6931,0c1.36029,0 2.46207,1.10178 2.46207,2.46207l0,6.77069l-2.46207,0l0,-6.15517l-6.15517,0c-1.36029,0 -2.46207,-1.10178 -2.46207,-2.46207l0,-7.27541c0,-1.28643 0.94174,-2.43745 2.22202,-2.56055c0.5355,-0.0554 1.04022,0.06771 1.46493,0.31391l0.01231,0c0.00616,0.00616 0.01231,0.01231 0.02462,0.01847c0.27698,0.14157 0.5355,0.32622 0.75093,0.56012l1.59419,1.76038c1.20641,1.33567 3.12067,2.28357 5.01031,2.25895l0,2.46207c-2.16046,-0.00616 -4.56714,-1.08946 -6.15517,-2.40052z M27.57,31.3862c-0.57243,2.80676 -3.05296,4.92414 -6.03207,4.92414c-3.39765,0 -6.15517,-2.75752 -6.15517,-6.15517c0,-2.9791 2.11738,-5.45963 4.92414,-6.03207l0,2.5544c-1.43415,0.50472 -2.46207,1.87117 -2.46207,3.47767c0,2.03736 1.65574,3.6931 3.6931,3.6931c1.6065,0 2.97295,-1.02791 3.47767,-2.46207z M21.53793,14.15173c0,-1.35976 1.10231,-2.46207 2.46207,-2.46207c1.35976,0 2.46207,1.10231 2.46207,2.46207c0,1.35976 -1.10231,2.46207 -2.46207,2.46207c-1.35976,0 -2.46207,-1.10231 -2.46207,-2.46207z" fill="#ffffff" stroke-width="0" stroke-miterlimit="10" font-family="sans-serif" font-weight="normal" font-size="12"></path></g></svg>